<?xml version="1.0" encoding="UTF-8" standalone="no"?>
<!DOCTYPE svg PUBLIC "-//W3C//DTD SVG 1.1//EN"
 "http://www.w3.org/Graphics/SVG/1.1/DTD/svg11.dtd">
<!-- Generated by graphviz version 2.40.1 (20161225.0304)
 -->
<!-- Title: G Pages: 1 -->
<svg width="527pt" height="697pt"
 viewBox="0.00 0.00 526.64 697.00" xmlns="http://www.w3.org/2000/svg" xmlns:xlink="http://www.w3.org/1999/xlink">
<g id="graph0" class="graph" transform="scale(1 1) rotate(0) translate(4 693)">
<title>G</title>
<polygon fill="#ffffff" stroke="transparent" points="-4,4 -4,-693 522.644,-693 522.644,4 -4,4"/>
<g id="clust1" class="cluster">
<title>cluster_Global</title>
<path fill="none" stroke="#c0c0c0" d="M20,-8C20,-8 498.644,-8 498.644,-8 504.644,-8 510.644,-14 510.644,-20 510.644,-20 510.644,-669 510.644,-669 510.644,-675 504.644,-681 498.644,-681 498.644,-681 20,-681 20,-681 14,-681 8,-675 8,-669 8,-669 8,-20 8,-20 8,-14 14,-8 20,-8"/>
<text text-anchor="middle" x="259.322" y="-668.2" font-family="Times,serif" font-size="11.00" fill="#c0c0c0">Global</text>
</g>
<g id="clust2" class="cluster">
<title>cluster_\PHPLogin</title>
<path fill="none" stroke="#c0c0c0" d="M28,-16C28,-16 490.644,-16 490.644,-16 496.644,-16 502.644,-22 502.644,-28 502.644,-28 502.644,-642 502.644,-642 502.644,-648 496.644,-654 490.644,-654 490.644,-654 28,-654 28,-654 22,-654 16,-648 16,-642 16,-642 16,-28 16,-28 16,-22 22,-16 28,-16"/>
<text text-anchor="middle" x="259.322" y="-641.2" font-family="Times,serif" font-size="11.00" fill="#c0c0c0">PHPLogin</text>
</g>
<g id="clust3" class="cluster">
<title>cluster_\PHPLogin\Traits</title>
<path fill="none" stroke="#c0c0c0" d="M375.6279,-502C375.6279,-502 482.644,-502 482.644,-502 488.644,-502 494.644,-508 494.644,-514 494.644,-514 494.644,-615 494.644,-615 494.644,-621 488.644,-627 482.644,-627 482.644,-627 375.6279,-627 375.6279,-627 369.6279,-627 363.6279,-621 363.6279,-615 363.6279,-615 363.6279,-514 363.6279,-514 363.6279,-508 369.6279,-502 375.6279,-502"/>
<text text-anchor="middle" x="429.136" y="-614.2" font-family="Times,serif" font-size="11.00" fill="#c0c0c0">Traits</text>
</g>
<!-- \\PHPLogin\\Traits\\RoleTrait -->
<g id="node1" class="node">
<title>\\PHPLogin\\Traits\\RoleTrait</title>
<polygon fill="none" stroke="#000000" points="467.0468,-600 391.2252,-600 391.2252,-564 467.0468,-564 467.0468,-600"/>
<text text-anchor="middle" x="429.136" y="-578.7" font-family="Courier,monospace" font-size="11.00" fill="#000000">RoleTrait</text>
</g>
<!-- \\PHPLogin\\Traits\\PermissionTrait -->
<g id="node2" class="node">
<title>\\PHPLogin\\Traits\\PermissionTrait</title>
<polygon fill="none" stroke="#000000" points="486.6521,-546 371.6199,-546 371.6199,-510 486.6521,-510 486.6521,-546"/>
<text text-anchor="middle" x="429.136" y="-524.7" font-family="Courier,monospace" font-size="11.00" fill="#000000">PermissionTrait</text>
</g>
<!-- \\PHPLogin\\ProfileData -->
<g id="node3" class="node">
<title>\\PHPLogin\\ProfileData</title>
<polygon fill="none" stroke="#000000" points="269.7299,-519 181.5045,-519 181.5045,-483 269.7299,-483 269.7299,-519"/>
<text text-anchor="middle" x="225.6172" y="-497.7" font-family="Courier,monospace" font-size="11.00" fill="#000000">ProfileData</text>
</g>
<!-- \\PHPLogin\\DbConn -->
<g id="node10" class="node">
<title>\\PHPLogin\\DbConn</title>
<polygon fill="none" stroke="#000000" points="79.4111,-330 24.1954,-330 24.1954,-294 79.4111,-294 79.4111,-330"/>
<text text-anchor="middle" x="51.8032" y="-308.7" font-family="Courier,monospace" font-size="11.00" fill="#000000">DbConn</text>
</g>
<!-- \\PHPLogin\\ProfileData&#45;&gt;\\PHPLogin\\DbConn -->
<g id="edge1" class="edge">
<title>\\PHPLogin\\ProfileData&#45;&gt;\\PHPLogin\\DbConn</title>
<path fill="none" stroke="#000000" d="M181.1812,-490.2155C170.7532,-486.2769 160.1914,-481.0026 151.6064,-474 106.7985,-437.4512 76.6055,-375.1439 61.9902,-339.3911"/>
<polygon fill="none" stroke="#000000" points="65.2261,-338.0563 58.2818,-330.0546 58.7205,-340.6404 65.2261,-338.0563"/>
</g>
<!-- \\PHPLogin\\PasswordHandler -->
<g id="node4" class="node">
<title>\\PHPLogin\\PasswordHandler</title>
<polygon fill="none" stroke="#000000" points="283.1333,-465 168.1011,-465 168.1011,-429 283.1333,-429 283.1333,-465"/>
<text text-anchor="middle" x="225.6172" y="-443.7" font-family="Courier,monospace" font-size="11.00" fill="#000000">PasswordHandler</text>
</g>
<!-- \\PHPLogin\\PasswordHandler&#45;&gt;\\PHPLogin\\DbConn -->
<g id="edge2" class="edge">
<title>\\PHPLogin\\PasswordHandler&#45;&gt;\\PHPLogin\\DbConn</title>
<path fill="none" stroke="#000000" d="M168.1048,-429.1603C162.339,-426.4564 156.7299,-423.4106 151.6064,-420 118.3379,-397.8539 88.4373,-362.4082 70.2258,-338.2092"/>
<polygon fill="none" stroke="#000000" points="73.0392,-336.1271 64.2853,-330.159 67.4068,-340.2835 73.0392,-336.1271"/>
</g>
<!-- \\PHPLogin\\ImgHandler -->
<g id="node5" class="node">
<title>\\PHPLogin\\ImgHandler</title>
<polygon fill="none" stroke="#000000" points="470.1467,-492 388.1252,-492 388.1252,-456 470.1467,-456 470.1467,-492"/>
<text text-anchor="middle" x="429.136" y="-470.7" font-family="Courier,monospace" font-size="11.00" fill="#000000">ImgHandler</text>
</g>
<!-- \\PHPLogin\\PermissionHandler -->
<g id="node6" class="node">
<title>\\PHPLogin\\PermissionHandler</title>
<polygon fill="none" stroke="#000000" points="289.8356,-411 161.3987,-411 161.3987,-375 289.8356,-375 289.8356,-411"/>
<text text-anchor="middle" x="225.6172" y="-389.7" font-family="Courier,monospace" font-size="11.00" fill="#000000">PermissionHandler</text>
</g>
<!-- \\PHPLogin\\PermissionHandler&#45;&gt;\\PHPLogin\\DbConn -->
<g id="edge3" class="edge">
<title>\\PHPLogin\\PermissionHandler&#45;&gt;\\PHPLogin\\DbConn</title>
<path fill="none" stroke="#000000" d="M173.0739,-374.9128C165.7948,-372.0941 158.4664,-369.0872 151.6064,-366 130.1465,-356.3423 106.9836,-343.9401 88.3794,-333.4574"/>
<polygon fill="none" stroke="#000000" points="90.0627,-330.3883 79.64,-328.4859 86.6015,-336.4727 90.0627,-330.3883"/>
</g>
<!-- \\PHPLogin\\UserHandler -->
<g id="node7" class="node">
<title>\\PHPLogin\\UserHandler</title>
<polygon fill="none" stroke="#000000" points="269.7299,-357 181.5045,-357 181.5045,-321 269.7299,-321 269.7299,-357"/>
<text text-anchor="middle" x="225.6172" y="-335.7" font-family="Courier,monospace" font-size="11.00" fill="#000000">UserHandler</text>
</g>
<!-- \\PHPLogin\\UserHandler&#45;&gt;\\PHPLogin\\DbConn -->
<g id="edge4" class="edge">
<title>\\PHPLogin\\UserHandler&#45;&gt;\\PHPLogin\\DbConn</title>
<path fill="none" stroke="#000000" d="M181.3069,-332.1169C152.9819,-327.7169 116.6367,-322.0711 89.6634,-317.8811"/>
<polygon fill="none" stroke="#000000" points="89.8766,-314.3724 79.4579,-316.2958 88.8021,-321.2894 89.8766,-314.3724"/>
</g>
<!-- \\PHPLogin\\AppConfig -->
<g id="node8" class="node">
<title>\\PHPLogin\\AppConfig</title>
<polygon fill="none" stroke="#000000" points="263.528,-141 187.7064,-141 187.7064,-105 263.528,-105 263.528,-141"/>
<text text-anchor="middle" x="225.6172" y="-119.7" font-family="Courier,monospace" font-size="11.00" fill="#000000">AppConfig</text>
</g>
<!-- \\PHPLogin\\AppConfig&#45;&gt;\\PHPLogin\\DbConn -->
<g id="edge5" class="edge">
<title>\\PHPLogin\\AppConfig&#45;&gt;\\PHPLogin\\DbConn</title>
<path fill="none" stroke="#000000" d="M187.7099,-131.4774C175.2735,-135.5854 161.9932,-141.5278 151.6064,-150 106.7985,-186.5488 76.6055,-248.8561 61.9902,-284.6089"/>
<polygon fill="none" stroke="#000000" points="58.7205,-283.3596 58.2818,-293.9454 65.2261,-285.9437 58.7205,-283.3596"/>
</g>
<!-- \\PHPLogin\\CSRFHandler -->
<g id="node9" class="node">
<title>\\PHPLogin\\CSRFHandler</title>
<polygon fill="none" stroke="#000000" points="473.2486,-438 385.0233,-438 385.0233,-402 473.2486,-402 473.2486,-438"/>
<text text-anchor="middle" x="429.136" y="-416.7" font-family="Courier,monospace" font-size="11.00" fill="#000000">CSRFHandler</text>
</g>
<!-- \\PHPLogin\\MailHandler -->
<g id="node11" class="node">
<title>\\PHPLogin\\MailHandler</title>
<polygon fill="none" stroke="#000000" points="473.2486,-384 385.0233,-384 385.0233,-348 473.2486,-348 473.2486,-384"/>
<text text-anchor="middle" x="429.136" y="-362.7" font-family="Courier,monospace" font-size="11.00" fill="#000000">MailHandler</text>
</g>
<!-- \\PHPLogin\\MailHandler&#45;&gt;\\PHPLogin\\AppConfig -->
<g id="edge6" class="edge">
<title>\\PHPLogin\\MailHandler&#45;&gt;\\PHPLogin\\AppConfig</title>
<path fill="none" stroke="#000000" d="M384.97,-353.9004C377.0839,-350.1468 369.5173,-345.2817 363.6279,-339 302.9707,-274.3023 361.603,-213.4364 299.6279,-150 292.3877,-142.5891 282.9522,-137.1999 273.2544,-133.2849"/>
<polygon fill="none" stroke="#000000" points="274.1355,-129.8839 263.5408,-129.8409 271.7963,-136.4815 274.1355,-129.8839"/>
</g>
<!-- \\PHPLogin\\TokenHandler -->
<g id="node12" class="node">
<title>\\PHPLogin\\TokenHandler</title>
<polygon fill="none" stroke="#000000" points="476.8491,-330 381.4229,-330 381.4229,-294 476.8491,-294 476.8491,-330"/>
<text text-anchor="middle" x="429.136" y="-308.7" font-family="Courier,monospace" font-size="11.00" fill="#000000">TokenHandler</text>
</g>
<!-- \\PHPLogin\\MiscFunctions -->
<g id="node13" class="node">
<title>\\PHPLogin\\MiscFunctions</title>
<polygon fill="none" stroke="#000000" points="479.9501,-276 378.3219,-276 378.3219,-240 479.9501,-240 479.9501,-276"/>
<text text-anchor="middle" x="429.136" y="-254.7" font-family="Courier,monospace" font-size="11.00" fill="#000000">MiscFunctions</text>
</g>
<!-- \\PHPLogin\\UserData -->
<g id="node14" class="node">
<title>\\PHPLogin\\UserData</title>
<polygon fill="none" stroke="#000000" points="259.926,-303 191.3083,-303 191.3083,-267 259.926,-267 259.926,-303"/>
<text text-anchor="middle" x="225.6172" y="-281.7" font-family="Courier,monospace" font-size="11.00" fill="#000000">UserData</text>
</g>
<!-- \\PHPLogin\\UserData&#45;&gt;\\PHPLogin\\DbConn -->
<g id="edge7" class="edge">
<title>\\PHPLogin\\UserData&#45;&gt;\\PHPLogin\\DbConn</title>
<path fill="none" stroke="#000000" d="M191.2771,-290.3343C161.9835,-294.8848 119.9264,-301.4178 89.6649,-306.1186"/>
<polygon fill="none" stroke="#000000" points="88.8374,-302.7051 79.4932,-307.6987 89.9119,-309.6221 88.8374,-302.7051"/>
</g>
<!-- \\PHPLogin\\CookieHandler -->
<g id="node15" class="node">
<title>\\PHPLogin\\CookieHandler</title>
<polygon fill="none" stroke="#000000" points="479.9501,-222 378.3219,-222 378.3219,-186 479.9501,-186 479.9501,-222"/>
<text text-anchor="middle" x="429.136" y="-200.7" font-family="Courier,monospace" font-size="11.00" fill="#000000">CookieHandler</text>
</g>
<!-- \\PHPLogin\\LoginHandler -->
<g id="node16" class="node">
<title>\\PHPLogin\\LoginHandler</title>
<polygon fill="none" stroke="#000000" points="476.8491,-168 381.4229,-168 381.4229,-132 476.8491,-132 476.8491,-168"/>
<text text-anchor="middle" x="429.136" y="-146.7" font-family="Courier,monospace" font-size="11.00" fill="#000000">LoginHandler</text>
</g>
<!-- \\PHPLogin\\LoginHandler&#45;&gt;\\PHPLogin\\AppConfig -->
<g id="edge8" class="edge">
<title>\\PHPLogin\\LoginHandler&#45;&gt;\\PHPLogin\\AppConfig</title>
<path fill="none" stroke="#000000" d="M381.4199,-143.6697C348.9793,-139.3659 306.2157,-133.6927 273.6981,-129.3787"/>
<polygon fill="none" stroke="#000000" points="273.9,-125.8749 263.5266,-128.0293 272.9794,-132.8141 273.9,-125.8749"/>
</g>
<!-- \\PHPLogin\\RoleHandler -->
<g id="node17" class="node">
<title>\\PHPLogin\\RoleHandler</title>
<polygon fill="none" stroke="#000000" points="269.7299,-249 181.5045,-249 181.5045,-213 269.7299,-213 269.7299,-249"/>
<text text-anchor="middle" x="225.6172" y="-227.7" font-family="Courier,monospace" font-size="11.00" fill="#000000">RoleHandler</text>
</g>
<!-- \\PHPLogin\\RoleHandler&#45;&gt;\\PHPLogin\\DbConn -->
<g id="edge9" class="edge">
<title>\\PHPLogin\\RoleHandler&#45;&gt;\\PHPLogin\\DbConn</title>
<path fill="none" stroke="#000000" d="M181.3613,-245.9469C171.4594,-249.6214 161.0856,-253.7341 151.6064,-258 130.1465,-267.6577 106.9836,-280.0599 88.3794,-290.5426"/>
<polygon fill="none" stroke="#000000" points="86.6015,-287.5273 79.64,-295.5141 90.0627,-293.6117 86.6015,-287.5273"/>
</g>
<!-- \\PHPLogin\\AuthorizationHandler -->
<g id="node18" class="node">
<title>\\PHPLogin\\AuthorizationHandler</title>
<polygon fill="none" stroke="#000000" points="299.6387,-195 151.5957,-195 151.5957,-159 299.6387,-159 299.6387,-195"/>
<text text-anchor="middle" x="225.6172" y="-173.7" font-family="Courier,monospace" font-size="11.00" fill="#000000">AuthorizationHandler</text>
</g>
<!-- \\PHPLogin\\AuthorizationHandler&#45;&gt;\\PHPLogin\\DbConn -->
<g id="edge10" class="edge">
<title>\\PHPLogin\\AuthorizationHandler&#45;&gt;\\PHPLogin\\DbConn</title>
<path fill="none" stroke="#000000" d="M167.7206,-195.0205C162.09,-197.6792 156.6161,-200.6652 151.6064,-204 118.3379,-226.1461 88.4373,-261.5918 70.2258,-285.7908"/>
<polygon fill="none" stroke="#000000" points="67.4068,-283.7165 64.2853,-293.841 73.0392,-287.8729 67.4068,-283.7165"/>
</g>
<!-- \\PHPLogin\\PageConstructor -->
<g id="node19" class="node">
<title>\\PHPLogin\\PageConstructor</title>
<polygon fill="none" stroke="#000000" points="486.6521,-114 371.6199,-114 371.6199,-78 486.6521,-78 486.6521,-114"/>
<text text-anchor="middle" x="429.136" y="-92.7" font-family="Courier,monospace" font-size="11.00" fill="#000000">PageConstructor</text>
</g>
<!-- \\PHPLogin\\PageConstructor&#45;&gt;\\PHPLogin\\AppConfig -->
<g id="edge11" class="edge">
<title>\\PHPLogin\\PageConstructor&#45;&gt;\\PHPLogin\\AppConfig</title>
<path fill="none" stroke="#000000" d="M371.3601,-103.6649C340.4538,-107.7651 302.8447,-112.7545 273.5731,-116.6379"/>
<polygon fill="none" stroke="#000000" points="273.0445,-113.1773 263.5917,-117.9621 273.9652,-120.1165 273.0445,-113.1773"/>
</g>
<!-- \\PHPLogin\\AdminFunctions -->
<g id="node20" class="node">
<title>\\PHPLogin\\AdminFunctions</title>
<polygon fill="none" stroke="#000000" points="483.5518,-60 374.7201,-60 374.7201,-24 483.5518,-24 483.5518,-60"/>
<text text-anchor="middle" x="429.136" y="-38.7" font-family="Courier,monospace" font-size="11.00" fill="#000000">AdminFunctions</text>
</g>
<!-- \\PHPLogin\\AdminFunctions&#45;&gt;\\PHPLogin\\AppConfig -->
<g id="edge12" class="edge">
<title>\\PHPLogin\\AdminFunctions&#45;&gt;\\PHPLogin\\AppConfig</title>
<path fill="none" stroke="#000000" d="M383.7157,-60.0772C350.7682,-73.1902 306.3144,-90.8827 272.936,-104.1672"/>
<polygon fill="none" stroke="#000000" points="271.3937,-101.0139 263.3968,-107.9638 273.9823,-107.5178 271.3937,-101.0139"/>
</g>
</g>
</svg>
